name C:\Users\u0101727\Documents\MyRepositories\predictivesimulations\OpenSimModel\subject1\EMG\EMG_gait_65.mot
datacolumns 25
datarows 22
range 2.23100000 2.25200000
endheader
time	HamL_r	TA_r	PerL_r	GL_r	HamM_r	Sol_r	VL_r	VM_r	PerB_l	TA_l	PerL_l	GL_l	GM_l	Sol_l	VL_l	VM_l	AddL_l	RF_l	TFL_l	GluMed_l	HamL_l	HamM_l	GluMed_r	RF_r	
          2.23100000	          0.00376752	          0.00515070	          0.00413350	          0.00309875	          0.00356903	          0.01538960	          0.05378610	          0.00337783	          0.01401432	          0.05354926	          0.01729416	          0.00927920	          0.01161631	          0.01169320	          0.00809222	          0.00836321	          0.00851924	          0.01847355	          0.01140442	          0.00671655	          0.00444170	          0.00536358	          0.06801314	          0.03004174	
          2.23200000	          0.00374617	          0.00517799	          0.00412227	          0.00313475	          0.00356736	          0.01538047	          0.05319088	          0.00338679	          0.01399715	          0.05482935	          0.01749807	          0.00944186	          0.01174259	          0.01192427	          0.00815209	          0.00843992	          0.00846982	          0.01869054	          0.01156711	          0.00668244	          0.00440540	          0.00536039	          0.06698237	          0.03003865	
          2.23300000	          0.00372407	          0.00520352	          0.00411185	          0.00317089	          0.00356558	          0.01540636	          0.05257423	          0.00339610	          0.01399032	          0.05607426	          0.01770206	          0.00960102	          0.01186360	          0.01215869	          0.00820916	          0.00851189	          0.00841935	          0.01888801	          0.01172176	          0.00664911	          0.00437044	          0.00535814	          0.06590894	          0.03002549	
          2.23400000	          0.00370154	          0.00522736	          0.00410206	          0.00320674	          0.00356387	          0.01546724	          0.05193760	          0.00340572	          0.01399364	          0.05727892	          0.01790536	          0.00975567	          0.01197857	          0.01239578	          0.00826253	          0.00857823	          0.00836732	          0.01906425	          0.01186702	          0.00661654	          0.00433690	          0.00535667	          0.06479564	          0.03000163	
          2.23500000	          0.00367888	          0.00524966	          0.00409275	          0.00324190	          0.00356240	          0.01556299	          0.05128234	          0.00341560	          0.01400686	          0.05843909	          0.01810720	          0.00990481	          0.01208665	          0.01263480	          0.00831131	          0.00863801	          0.00831320	          0.01921753	          0.01200168	          0.00658468	          0.00430485	          0.00535580	          0.06364647	          0.02996688	
          2.23600000	          0.00365634	          0.00527067	          0.00408380	          0.00327598	          0.00356133	          0.01569337	          0.05060949	          0.00342570	          0.01402962	          0.05955199	          0.01830687	          0.01004742	          0.01218695	          0.01287501	          0.00835462	          0.00869021	          0.00825648	          0.01934636	          0.01212457	          0.00655340	          0.00427436	          0.00535528	          0.06246554	          0.02992124	
          2.23700000	          0.00363412	          0.00529067	          0.00407517	          0.00330859	          0.00356077	          0.01585806	          0.04991966	          0.00343598	          0.01406163	          0.06061642	          0.01850382	          0.01018254	          0.01227860	          0.01311572	          0.00839162	          0.00873384	          0.00819659	          0.01944971	          0.01223465	          0.00652254	          0.00424545	          0.00535485	          0.06125647	          0.02986465	
          2.23800000	          0.00361237	          0.00530993	          0.00406693	          0.00333939	          0.00356084	          0.01605659	          0.04921331	          0.00344636	          0.01410269	          0.06163254	          0.01869769	          0.01030937	          0.01236097	          0.01335643	          0.00842161	          0.00876799	          0.00813297	          0.01952712	          0.01233102	          0.00649187	          0.00421815	          0.00535417	          0.06002219	          0.02979702	
          2.23900000	          0.00359120	          0.00532864	          0.00405917	          0.00336808	          0.00356163	          0.01628835	          0.04849133	          0.00345680	          0.01415274	          0.06260202	          0.01888852	          0.01042741	          0.01243377	          0.01359674	          0.00844413	          0.00879188	          0.00806512	          0.01957854	          0.01241293	          0.00646118	          0.00419246	          0.00535289	          0.05876530	          0.02971829	
          2.24000000	          0.00357073	          0.00534695	          0.00405197	          0.00339443	          0.00356328	          0.01655249	          0.04775549	          0.00346724	          0.01421174	          0.06352873	          0.01907689	          0.01053650	          0.01249710	          0.01383628	          0.00845891	          0.00880503	          0.00799277	          0.01960397	          0.01247982	          0.00643024	          0.00416835	          0.00535061	          0.05748815	          0.02962844	
          2.24100000	          0.00355104	          0.00536492	          0.00404539	          0.00341820	          0.00356587	          0.01684797	          0.04700813	          0.00347767	          0.01427963	          0.06441857	          0.01926395	          0.01063665	          0.01255134	          0.01407466	          0.00846575	          0.00880717	          0.00791590	          0.01960322	          0.01253119	          0.00639888	          0.00414582	          0.00534696	          0.05619323	          0.02952737	
          2.24200000	          0.00353226	          0.00538256	          0.00403946	          0.00343921	          0.00356954	          0.01717353	          0.04625157	          0.00348811	          0.01435629	          0.06527824	          0.01945106	          0.01072804	          0.01259708	          0.01431158	          0.00846451	          0.00879824	          0.00783474	          0.01957585	          0.01256652	          0.00636684	          0.00412486	          0.00534157	          0.05488353	          0.02941480	
          2.24300000	          0.00351450	          0.00539981	          0.00403420	          0.00345732	          0.00357436	          0.01752768	          0.04548775	          0.00349853	          0.01444165	          0.06611415	          0.01963950	          0.01081098	          0.01263511	          0.01454691	          0.00845503	          0.00877825	          0.00774962	          0.01952122	          0.01258535	          0.00633386	          0.00410551	          0.00533412	          0.05356281	          0.02929020	
          2.24400000	          0.00349789	          0.00541655	          0.00402961	          0.00347246	          0.00358041	          0.01790875	          0.04471824	          0.00350891	          0.01453575	          0.06693203	          0.01983035	          0.01088609	          0.01266643	          0.01478066	          0.00843729	          0.00874719	          0.00766098	          0.01943869	          0.01258736	          0.00629959	          0.00408786	          0.00532443	          0.05223518	          0.02915288	
          2.24500000	          0.00348252	          0.00543260	          0.00402564	          0.00348463	          0.00358774	          0.01831487	          0.04394434	          0.00351919	          0.01463877	          0.06773680	          0.02002437	          0.01095409	          0.01269207	          0.01501289	          0.00841135	          0.00870517	          0.00756922	          0.01932790	          0.01257242	          0.00626370	          0.00407200	          0.00531246	          0.05090465	          0.02900207	
          2.24600000	          0.00346849	          0.00544773	          0.00402225	          0.00349397	          0.00359633	          0.01874398	          0.04316696	          0.00352925	          0.01475091	          0.06853259	          0.02022210	          0.01101578	          0.01271303	          0.01524363	          0.00837749	          0.00865239	          0.00747473	          0.01918916	          0.01254068	          0.00622593	          0.00405804	          0.00529830	          0.04957512	          0.02883700	
          2.24700000	          0.00345586	          0.00546173	          0.00401936	          0.00350065	          0.00360617	          0.01919389	          0.04238655	          0.00353895	          0.01487232	          0.06932297	          0.02042375	          0.01107191	          0.01273017	          0.01547284	          0.00833609	          0.00858925	          0.00737785	          0.01902354	          0.01249261	          0.00618608	          0.00404606	          0.00528209	          0.04825061	          0.02865708	
          2.24800000	          0.00344466	          0.00547441	          0.00401684	          0.00350487	          0.00361717	          0.01966226	          0.04160306	          0.00354817	          0.01500299	          0.07011103	          0.02062927	          0.01112313	          0.01274416	          0.01570041	          0.00828768	          0.00851632	          0.00727885	          0.01883263	          0.01242894	          0.00614400	          0.00403613	          0.00526401	          0.04693535	          0.02846188	
          2.24900000	          0.00343486	          0.00548564	          0.00401459	          0.00350681	          0.00362925	          0.02014661	          0.04081614	          0.00355681	          0.01514280	          0.07089952	          0.02083833	          0.01116994	          0.01275551	          0.01592609	          0.00823285	          0.00843429	          0.00717794	          0.01861837	          0.01235056	          0.00609962	          0.00402827	          0.00524426	          0.04563359	          0.02825093	
          2.25000000	          0.00342642	          0.00549546	          0.00401246	          0.00350661	          0.00364230	          0.02064427	          0.04002546	          0.00356482	          0.01529147	          0.07169100	          0.02105038	          0.01121276	          0.01276451	          0.01614950	          0.00817216	          0.00834396	          0.00707535	          0.01838289	          0.01225848	          0.00605287	          0.00402252	          0.00522310	          0.04434929	          0.02802364	
          2.25100000	          0.00341924	          0.00550396	          0.00401028	          0.00350440	          0.00365618	          0.02115248	          0.03923094	          0.00357212	          0.01544855	          0.07248768	          0.02126476	          0.01125184	          0.01277131	          0.01637004	          0.00810613	          0.00824617	          0.00697132	          0.01812848	          0.01215380	          0.00600376	          0.00401884	          0.00520080	          0.04308594	          0.02777937	
          2.25200000	          0.00341323	          0.00551127	          0.00400792	          0.00350027	          0.00367070	          0.02166841	          0.03843290	          0.00357866	          0.01561344	          0.07329121	          0.02148084	          0.01128737	          0.01277583	          0.01658702	          0.00803524	          0.00814180	          0.00686613	          0.01785750	          0.01203767	          0.00595235	          0.00401718	          0.00517764	          0.04184668	          0.02751763	
